<svg width="13" height="13" viewBox="0 0 13 13" fill="none" xmlns="http://www.w3.org/2000/svg">
<path d="M6.45927 5.46182H7.5926V3.76182H9.2926V2.62848H7.5926V0.928482H6.45927V2.62848H4.75927V3.76182H6.45927V5.46182ZM4.1926 10.5618C3.56927 10.5618 3.06494 11.0718 3.06494 11.6951C3.06494 12.3185 3.56927 12.8285 4.1926 12.8285C4.81594 12.8285 5.32594 12.3185 5.32594 11.6951C5.32594 11.0718 4.81594 10.5618 4.1926 10.5618ZM9.85927 10.5618C9.23594 10.5618 8.7316 11.0718 8.7316 11.6951C8.7316 12.3185 9.23594 12.8285 9.85927 12.8285C10.4826 12.8285 10.9926 12.3185 10.9926 11.6951C10.9926 11.0718 10.4826 10.5618 9.85927 10.5618ZM4.28894 8.72015L4.30594 8.65215L4.81594 7.72848H9.0376C9.4626 7.72848 9.8366 7.49615 10.0293 7.14482L12.2166 3.17248L11.2306 2.62848H11.2249L10.6016 3.76182L9.0376 6.59515H5.0596L4.98594 6.44215L3.7166 3.76182L3.17827 2.62848L2.6456 1.49515H0.792603V2.62848H1.92594L3.96594 6.92948L3.20094 8.31782C3.11027 8.47648 3.05927 8.66348 3.05927 8.86182C3.05927 9.48515 3.56927 9.99515 4.1926 9.99515H10.9926V8.86182H4.4306C4.35694 8.86182 4.28894 8.79948 4.28894 8.72015Z" fill="white"/>
</svg>
